# AST/ASF file generated using VICON BodyLanguage
# -----------------------------------------------
:version 1.10
:name VICON
:units
  mass 1.0
  length 0.45
  angle deg
:documentation
   .ast/.asf automatically generated from VICON data using
   VICON BodyBuilder and BodyLanguage model FoxedUp or BRILLIANT.MOD
:root
   order TX TY TZ RX RY RZ
   axis XYZ
   position 0 0 0  
   orientation 0 0 0 
:bonedata
  begin
     id 1 
     name lhipjoint
     direction 0.661853 -0.702389 0.261917 
     length 2.64193 
     axis 0 0 0  XYZ
  end
  begin
     id 2 
     name lfemur
     direction 0.34202 -0.939693 0  
     length 7.01722  
     axis 0 0 20  XYZ
    dof rx ry rz
    limits (-160.0 20.0)
           (-70.0 70.0)
           (-60.0 70.0)
  end
  begin
     id 3 
     name ltibia
     direction 0.34202 -0.939693 0   
     length 8.25008   
     axis 0 0 20   XYZ
    dof rx
    limits (-10.0 170.0)
  end
  begin
     id 4 
     name lfoot
     direction 0.0709916 -0.195048 0.978221   
     length 2.31941   
     axis -90 7.62852e-016 20   XYZ
    dof rx rz
    limits (-45.0 90.0)
           (-70.0 20.0)
  end
  begin
     id 5 
     name ltoes
     direction 1.53586e-011 -4.22017e-011 1   
     length 1.16486   
     axis -90 7.62852e-016 20   XYZ
    dof rx
    limits (-90.0 20.0)
  end
  begin
     id 6 
     name rhipjoint
     direction -0.638185 -0.721362 0.268992   
     length 2.57244  
     axis 0 0 0  XYZ 
  end
  begin
     id 7 
     name rfemur
     direction -0.34202 -0.939693 0   
     length 7.07017   
     axis 0 0 -20   XYZ
    dof rx ry rz
    limits (-160.0 20.0)
           (-70.0 70.0)
           (-70.0 60.0)
  end
  begin
     id 8 
     name rtibia
     direction -0.34202 -0.939693 0   
     length 8.20386   
     axis 0 0 -20   XYZ
    dof rx
    limits (-10.0 170.0)
 end
 begin
     id 9 
     name rfoot
     direction -0.0822429 -0.225961 0.970658   
     length 2.32215  
     axis -90 -7.62852e-016 -20   XYZ
    dof rx rz
    limits (-45.0 90.0)
           (-20.0 70.0)
  end
  begin
     id 10 
     name rtoes
     direction -1.53597e-011 -4.21689e-011 1   
     length 1.16333   
     axis -90 -7.62852e-016 -20   XYZ
    dof rx
    limits (-90.0 20.0)
  end
  begin
     id 11 
     name lowerback
     direction -0.0131557 0.998589 -0.0514484   
     length 2.14993   
     axis 0 0 0   XYZ
    dof rx ry rz
    limits (-20.0 45.0)
           (-30.0 30.0)
           (-30.0 30.0)
  end
  begin
     id 12 
     name upperback
     direction -0.000776481 0.999993 0.00352685   
     length 2.15301   
     axis 0 0 0   XYZ
    dof rx ry rz
    limits (-20.0 45.0)
           (-30.0 30.0)
           (-30.0 30.0)
  end
  begin
     id 13 
     name thorax
     direction 0.00438186 0.999609 0.0276143   
     length 2.15424   
     axis 0 0 0   XYZ
    dof rx ry rz
    limits (-20.0 45.0)
           (-30.0 30.0)
           (-30.0 30.0)
  end
  begin
     id 14 
     name lowerneck
     direction -0.0488006 0.998094 0.0377807   
     length 1.90481   
     axis 0 0 0   XYZ
    dof rx ry rz
    limits (-20.0 45.0)
           (-30.0 30.0)
           (-30.0 30.0)
  end
  begin
     id 15 
     name upperneck
     direction 0.0443769 0.990702 -0.12861   
     length 1.91305   
     axis 0 0 0   XYZ
    dof rx ry rz
    limits (-20.0 45.0)
           (-30.0 30.0)
           (-30.0 30.0)
  end
  begin
     id 16
     name head
     direction 0.0165599 0.998647 -0.0492982  
     length 1.92369  
     axis 0 0 0   XYZ
    dof rx ry rz
    limits (-20.0 45.0)
           (-30.0 30.0)
           (-30.0 30.0)
  end
  begin
     id 17 
     name lclavicle
     direction 0.911936 0.410197 -0.0105506  
     length 3.52622  
     axis 0 0 0   XYZ
    dof ry rz
    limits (-20.0 10.0)
           (0.0 20.0)
  end
  begin
     id 18 
     name lhumerus
     direction 1 -4.48974e-011 -2.48591e-028   
     length 5.47651   
     axis 180 -30 -90   XYZ
    dof rx ry rz
    limits (-60.0 90.0)
           (-90.0 90.0)
           (-90.0 90.0)
  end
  begin
     id 19
     name lradius
     direction 1 -4.48938e-011 -4.40099e-027   
     length 3.09058   
     axis 180 -30 -90   XYZ
    dof rx
    limits (-10.0 170.0)
  end
  begin
     id 20
     name lwrist
     direction 1 -4.49042e-011 -2.99852e-027   
     length 1.54529   
     axis 1.95339e-015 90 90   XYZ
    dof ry
    limits (-180.0 0.0)
 end
  begin
     id 21 
     name lhand
     direction 1 -4.48815e-011 -5.98193e-027   
     length 0.771611   
     axis 3.82337e-015 90 90   XYZ
    dof rx rz
    limits (-90.0 90.0)
           (-45.0 45.0)
  end
  begin
     id 22 
     name lfingers
     direction 1 -4.49034e-011 -1.1993e-026   
     length 0.622093   
     axis 7.64668e-015 90 90   XYZ
    dof rx
    limits (0.0 90.0)
  end
  begin
     id 23
     name lthumb
     direction 0.707107 -6.34867e-011 0.707107   
     length 0.893204   
     axis -90 45 -1.62303e-014   XYZ
    dof rx rz
    limits (-45.0 45.0)
           (-45.0 45.0)
  end
  begin
     id 24 
     name rclavicle
     direction -0.93442 0.355634 -0.0195692   
     length 3.62463  
     axis 0 0 0   XYZ 
    dof ry rz
    limits (-10.0 20.0)
           (-20.0 0.0)
  end
  begin
     id 25 
     name rhumerus
     direction -1 -4.48957e-011 -1.19147e-027  
     length 5.14182   
     axis 180 30 90   XYZ
    dof rx ry rz
    limits (-90.0 60.0)
           (-90.0 90.0)
           (-90.0 90.0)
  end
  begin
     id 26 
     name rradius
     direction -1 -4.48952e-011 -3.81062e-027   
     length 3.35565   
     axis 180 30 90   XYZ
    dof rx
    limits (-10.0 170.0)
  end
  begin
     id 27 
     name rwrist
     direction -1 -4.48973e-011 -2.99621e-027   
     length 1.67782   
     axis 1.95339e-015 -90 -90   XYZ
    dof ry
    limits (-180.0 0.0)
  end
  begin
     id 28
     name rhand
     direction -1 -4.48895e-011 -5.98727e-027   
     length 0.801042   
     axis 3.82337e-015 -90 -90   XYZ
    dof rx rz
    limits (-90.0 90.0)
           (-45.0 45.0)
  end
  begin
     id 29
     name rfingers
     direction -1 -4.49065e-011 -1.19972e-026   
     length 0.645821   
     axis 7.64668e-015 -90 -90   XYZ
    dof rx
    limits (0.0 90.0)
  end
  begin
     id 30
     name rthumb
     direction -0.707107 -6.34957e-011 0.707107   
     length 0.927273   
     axis -90 -45 1.62303e-014   XYZ
    dof rx rz
    limits (-45.0 45.0)
           (-45.0 45.0)
  end
:hierarchy
  begin
    root lhipjoint rhipjoint lowerback
    lhipjoint lfemur
    lfemur ltibia
    ltibia lfoot
    lfoot ltoes
    rhipjoint rfemur
    rfemur rtibia
    rtibia rfoot
    rfoot rtoes
    lowerback upperback
    upperback thorax
    thorax lowerneck lclavicle rclavicle
    lowerneck upperneck
    upperneck head
    lclavicle lhumerus
    lhumerus lradius
    lradius lwrist
    lwrist lhand lthumb
    lhand lfingers
    rclavicle rhumerus
    rhumerus rradius
    rradius rwrist
    rwrist rhand rthumb
    rhand rfingers
  end

#!OML:ASF E:\Style4\Style4.ASF
:FULLY-SPECIFIED
:DEGREES
1
root -0.362677 18.0867 -1.09328 0.68874 -3.18987 2.39563
lowerback 2.47635 1.86931 -1.47524
upperback 1.14817 2.45611 -0.448853
thorax -0.252977 1.22415 0.300545
lowerneck -6.0936 -4.81156 -4.73487
upperneck 22.6515 -6.20229 0.911912
head 8.19243 -3.24784 0.546358
rclavicle 1.62134e-014 -2.38542e-015
rhumerus -33.9764 -3.22167 -82.4562
rradius 27.0398
rwrist 0.236277
rhand -12.8283 15.8191
rfingers 7.12502
rthumb 13.2587 -13.7392
lclavicle 1.62134e-014 -2.38542e-015
lhumerus -42.5173 -10.6616 87.0759
lradius 50.6261
lwrist 11.277
lhand 2.63214 29.5755
lfingers 7.12502
lthumb 28.109 57.489
rfemur -6.5836 6.49919 18.9974
rtibia 21.6701
rfoot -14.9393 -15.2506
rtoes -10.6721
lfemur -1.60366 -2.55332 -20.8481
ltibia 14.6287
lfoot -15.0813 15.1968
ltoes -14.9627
2
root -0.360649 18.087 -1.08971 0.714427 -3.2028 2.33209
lowerback 2.36809 1.87302 -1.37845
upperback 1.17598 2.46565 -0.445951
thorax -0.160204 1.22863 0.253783
lowerneck -6.09128 -4.81083 -4.6971
upperneck 22.6747 -6.20701 0.911272
head 8.1985 -3.24706 0.539323
rclavicle -2.74199e-014 1.07344e-014
rhumerus -33.9556 -3.26512 -82.454
rradius 27.0538
rwrist 0.270154
rhand -12.7952 15.9312
rfingers 7.12502
rthumb 13.2906 -13.625
lclavicle -2.74199e-014 1.07344e-014
lhumerus -42.5525 -10.7177 87.0928
lradius 50.6716
lwrist 11.3051
lhand 2.56499 29.5371
lfingers 7.12502
lthumb 28.0448 57.4611
rfemur -6.5753 6.42262 19.0472
rtibia 21.6221
rfoot -14.9606 -15.2105
rtoes -10.396
lfemur -1.5938 -2.60561 -20.8004
ltibia 14.6075
lfoot -15.0732 15.3777
ltoes -15.8843
3
root -0.3609 18.0877 -1.08836 0.714245 -3.19617 2.36127
lowerback 2.34322 1.87141 -1.41041
upperback 1.18526 2.46341 -0.453111
thorax -0.137785 1.22726 0.265452
lowerneck -6.07597 -4.81992 -4.70045
upperneck 22.6805 -6.21798 0.902314
head 8.19787 -3.25348 0.536232
rclavicle -1.39149e-015 8.94531e-015
rhumerus -33.9496 -3.2482 -82.4663
rradius 27.0249
rwrist 0.268303
rhand -12.839 16.0006
rfingers 7.12502
rthumb 13.2484 -13.5584
lclavicle -1.39149e-015 8.94531e-015
lhumerus -42.5186 -10.731 87.0905
lradius 50.6334
lwrist 11.3018
lhand 2.54973 29.4485
lfingers 7.12502
lthumb 28.0302 57.3749
rfemur -6.57563 6.43749 19.0172
rtibia 21.6314
rfoot -15.0891 -15.194
rtoes -10.2971
lfemur -1.58458 -2.59735 -20.8315
ltibia 14.5993
lfoot -15.0545 15.3869
ltoes -16.0175
4
root -0.360762 18.0873 -1.09 0.728912 -3.19108 2.36285
lowerback 2.355 1.87268 -1.41292
upperback 1.17502 2.4647 -0.450577
thorax -0.155088 1.22802 0.26876
lowerneck -6.03452 -4.82501 -4.72678
upperneck 22.6557 -6.22977 0.933718
head 8.18431 -3.25854 0.551248
rclavicle -2.18415e-014 3.37934e-015
rhumerus -33.9649 -3.24086 -82.4617
rradius 27.0286
rwrist 0.280617
rhand -12.8513 15.8768
rfingers 7.12502
rthumb 13.2365 -13.6829
lclavicle -2.18415e-014 3.37934e-015
lhumerus -42.4673 -10.6555 87.0676
lradius 50.5451
lwrist 11.2288
lhand 2.60683 29.4137
lfingers 7.12502
lthumb 28.0848 57.3312
rfemur -6.61086 6.43333 19.0177
rtibia 21.6375
rfoot -15.0737 -15.1801
rtoes -10.745
lfemur -1.59736 -2.6017 -20.8301
ltibia 14.5681
lfoot -14.9649 15.402
ltoes -16.0832
5
root -0.360633 18.0887 -1.08758 0.741598 -3.19286 2.36117
lowerback 2.31146 1.86414 -1.42981
upperback 1.18052 2.45395 -0.432178
thorax -0.126452 1.22236 0.298946
lowerneck -6.02626 -4.82155 -4.75714
upperneck 22.6518 -6.22228 0.939502
head 8.18262 -3.25702 0.559104
rclavicle -3.1644e-014 -2.5842e-015
rhumerus -33.9569 -3.24977 -82.4277
rradius 27.0322
rwrist 0.297115
rhand -12.789 15.7758
rfingers 7.12502
rthumb 13.2966 -13.78
lclavicle -3.1644e-014 -2.5842e-015
lhumerus -42.5006 -10.5676 87.0721
lradius 50.5519
lwrist 11.2256
lhand 2.58995 29.3797
lfingers 7.12502
lthumb 28.0687 57.2998
rfemur -6.60383 6.31001 19.011
rtibia 21.6669
rfoot -15.0274 -15.0327
rtoes -10.3115
lfemur -1.57341 -2.59046 -20.838
ltibia 14.5183
lfoot -14.9376 15.4199
ltoes -16.0489
